<?xml version="1.0" encoding="UTF-8" standalone="no"?>
<svg
   xmlns:dc="http://purl.org/dc/elements/1.1/"
   xmlns:cc="http://web.resource.org/cc/"
   xmlns:rdf="http://www.w3.org/1999/02/22-rdf-syntax-ns#"
   xmlns:svg="http://www.w3.org/2000/svg"
   xmlns="http://www.w3.org/2000/svg"
   xmlns:sodipodi="http://inkscape.sourceforge.net/DTD/sodipodi-0.dtd"
   xmlns:inkscape="http://www.inkscape.org/namespaces/inkscape"
   version="1.0"
   width="468pt"
   height="551pt"
   viewBox="0 0 468 551"
   preserveAspectRatio="xMidYMid meet"
   id="svg2"
   sodipodi:version="0.32"
   inkscape:version="0.43"
   sodipodi:docname="gcc.svg"
   sodipodi:docbase="/home/thomas/Desktop">
  <defs
     id="defs33" />
  <sodipodi:namedview
     inkscape:window-height="955"
     inkscape:window-width="1280"
     inkscape:pageshadow="2"
     inkscape:pageopacity="0.0"
     borderopacity="1.0"
     bordercolor="#666666"
     pagecolor="#ffffff"
     id="base"
     inkscape:zoom="0.97048849"
     inkscape:cx="364.51556"
     inkscape:cy="424.22617"
     inkscape:window-x="0"
     inkscape:window-y="0"
     inkscape:current-layer="layer2" />
  <metadata
     id="metadata4">
Created by potrace 1.7, written by Peter Selinger 2001-2005
<rdf:RDF>
  <cc:Work
     rdf:about="">
    <dc:format>image/svg+xml</dc:format>
    <dc:type
       rdf:resource="http://purl.org/dc/dcmitype/StillImage" />
  </cc:Work>
</rdf:RDF>
</metadata>
  <g
     inkscape:groupmode="layer"
     id="layer1"
     inkscape:label="Colors"
     style="display:inline">
    <path
       style="fill:#ffcfab;fill-opacity:1;fill-rule:evenodd;stroke:#000000;stroke-width:1px;stroke-linecap:butt;stroke-linejoin:miter;stroke-opacity:1"
       d="M 303.35239,57.228044 L 284.39286,87.728149 L 273.67661,92.674111 L 262.13603,100.09306 L 250.59545,102.56604 L 232.46025,97.620074 L 188.77091,151.20134 L 154.14917,156.97163 L 153.32485,162.74192 L 176.40601,210.55289 L 164.86543,244.3503 L 197.83851,250.94492 L 225.04131,286.39099 L 281.91988,255.89088 L 295.93344,255.06656 L 300.87941,263.30983 L 298.40642,278.14772 L 315.71729,289.6883 L 319.83893,275.67474 L 328.90653,289.6883 L 332.20384,277.32339 L 321.48758,258.36387 L 325.60922,255.06656 L 342.92009,274.02608 L 346.2174,269.08012 L 348.69038,258.36387 L 379.19048,250.94492 L 384.96077,237.75569 L 380.83914,215.49885 L 376.7175,194.89068 L 380.83914,185.82308 L 394.02837,220.44482 L 401.44732,267.43146 L 404.74462,335.85062 L 400.62299,372.12101 L 381.66346,430.64824 L 360.23096,463.62132 L 333.85249,489.17546 L 305.00104,509.78364 L 267.08199,525.44586 L 209.37909,530.39182 L 178.05466,527.09451 L 133.541,512.25662 L 111.28416,499.06739 L 94.797621,485.87816 L 66.770498,457.02671 L 49.459628,428.17526 L 32.973086,389.43188 L 21.432506,344.09389 L 18.959524,245.99896 L 23.905487,213.8502 L 37.094721,175.93115 L 51.93261,138.83643 L 76.662424,98.444401 L 98.919257,71.241606 L 131.06801,42.390156 L 162.39245,24.254959 L 189.59524,16.836015 L 232.46025,18.484669 L 266.25767,30.025249 L 288.5145,43.214483 L 303.35239,57.228044 z "
       id="path1335" />
    <path
       style="fill:#f39105;fill-opacity:1;fill-rule:evenodd;stroke:#000000;stroke-width:1px;stroke-linecap:butt;stroke-linejoin:miter;stroke-opacity:1"
       d="M 164.0411,187.47173 L 153.32485,160.26894 L 164.86543,154.49865 L 187.94659,151.20134 L 230.8116,98.444401 L 254.71709,101.74171 L 270.3793,93.498438 L 281.91988,91.025457 L 263.78468,130.59316 L 228.33862,134.7148 L 164.0411,187.47173 z "
       id="path2211" />
    <path
       style="fill:#ffcfab;fill-opacity:1;fill-rule:evenodd;stroke:#000000;stroke-width:1px;stroke-linecap:butt;stroke-linejoin:miter;stroke-opacity:1;display:inline"
       d="M 318.19028,77.011896 L 337.1498,100.91738 L 342.09576,109.16065 L 305.82537,96.795747 L 309.947,85.255167 L 318.19028,77.011896 z "
       id="path3100" />
    <path
       style="fill:#f39a05;fill-opacity:1;fill-rule:evenodd;stroke:#000000;stroke-width:1px;stroke-linecap:butt;stroke-linejoin:miter;stroke-opacity:1;display:inline"
       d="M 304.17671,95.147093 L 322.31191,105.03902 L 341.27144,110.80931 L 315.71729,124.82287 L 296.75777,123.17422 L 295.10912,109.98498 L 304.17671,95.147093 z "
       id="path3976" />
    <path
       style="fill:#ab9a7e;fill-opacity:1;fill-rule:evenodd;stroke:#000000;stroke-width:1px;stroke-linecap:butt;stroke-linejoin:miter;stroke-opacity:1;display:inline"
       d="M 164.86543,189.12039 L 178.05466,210.55289 L 164.86543,244.3503 L 196.18986,250.12059 L 202.78448,256.71521 L 222.56833,287.21532 L 285.21719,254.24223 L 303.35239,260.83685 L 323.96057,253.4179 L 309.947,238.58001 L 312.41999,234.45838 L 319.0146,230.33674 L 322.31191,241.053 L 328.0822,254.24223 L 343.74442,273.20175 L 347.86605,270.72877 L 348.69038,258.36387 L 380.01481,250.94492 L 384.13645,232.80972 L 375.06885,194.89068 L 375.06885,178.40413 L 389.90674,175.93115 L 403.09597,185.82308 L 422.05549,190.76904 L 429.47444,189.12039 L 407.21761,161.09326 L 385.7851,142.13374 L 370.94721,132.24181 L 340.44711,133.89047 L 316.54162,139.66076 L 295.93344,149.55268 L 283.56854,147.90403 L 267.90632,140.48509 L 262.96036,133.06614 L 230.8116,132.24181 L 164.86543,189.12039 z "
       id="path4852" />
    <path
       style="fill:#ffffff;fill-opacity:1;fill-rule:evenodd;stroke:#000000;stroke-width:1px;stroke-linecap:butt;stroke-linejoin:miter;stroke-opacity:1;display:inline"
       d="M 319.0146,229.51242 L 323.13624,240.22867 L 320.66326,246.82329 L 308.29835,239.40434 L 311.59566,233.63405 L 319.0146,229.51242 z "
       id="path5728" />
    <path
       style="fill:#ffffff;fill-opacity:1;fill-rule:evenodd;stroke:#000000;stroke-width:1px;stroke-linecap:butt;stroke-linejoin:miter;stroke-opacity:1"
       d="M 337.97413,184.99875 L 351.16336,173.45817 L 358.5823,172.63384 L 361.05529,176.75548 L 349.51471,189.12039 L 342.92009,191.59337 L 337.97413,184.99875 z "
       id="path6604" />
    <path
       style="fill:#ffffff;fill-opacity:1;fill-rule:evenodd;stroke:#000000;stroke-width:1px;stroke-linecap:butt;stroke-linejoin:miter;stroke-opacity:1"
       d="M 362.70394,128.12018 L 321.48758,138.0121 L 295.10912,148.72836 L 272.02796,142.13374 L 263.78468,132.24181 L 285.21719,83.606513 L 304.17671,58.876699 L 319.0146,53.106409 L 333.02816,56.403717 L 344.56874,73.714587 L 358.5823,85.255167 L 359.40663,91.025457 L 338.79845,84.43084 L 318.19028,75.363241 L 298.40642,105.86335 L 294.28479,116.5796 L 297.5821,126.47152 L 351.16336,117.40393 L 357.75798,120.70123 L 362.70394,128.12018 z "
       id="path7479" />
    <path
       style="fill:#ffffff;fill-opacity:1;fill-rule:evenodd;stroke:#000000;stroke-width:1px;stroke-linecap:butt;stroke-linejoin:miter;stroke-opacity:1"
       d="M 377.54183,133.89047 L 402.27164,152.84999 L 416.2852,169.33654 L 422.05549,175.10683 L 430.29877,170.98519 L 441.83935,145.43105 L 446.78531,124.82287 L 446.78531,107.512 L 442.66367,101.74171 L 425.3528,101.74171 L 411.33924,105.03902 C 411.33924,105.03902 399.79866,110.80931 403.09597,110.80931 C 406.39328,110.80931 422.05549,115.75527 422.05549,115.75527 L 428.65011,120.70123 L 430.29877,128.12018 L 421.23117,146.25538 L 417.10953,150.37701 L 398.15001,138.0121 L 392.37972,133.89047 L 386.60943,133.06614 L 377.54183,133.89047 z "
       id="path8354" />
  </g>
  <g
     inkscape:groupmode="layer"
     id="layer2"
     inkscape:label="Drawing"
     style="display:inline">
    <g
       transform="matrix(0.273684,0,0,-0.273684,0,551)"
       id="g6"
       style="fill:#000000;stroke:none">
      <g
         id="g8">
        <path
           d="M 625,1941 C 514,1901 473,1876 393,1797 C 250,1658 170,1520 105,1301 C 61,1155 53,1082 61,900 C 69,703 106,574 210,380 C 249,309 364,201 460,148 C 569,86 660,65 805,66 C 930,66 997,82 1101,137 C 1352,267 1489,520 1490,851 C 1490,994 1453,1228 1418,1306 C 1400,1345 1421,1357 1463,1331 C 1485,1318 1514,1310 1544,1310 C 1595,1310 1602,1321 1568,1344 L 1546,1360 L 1567,1375 C 1594,1394 1636,1499 1644,1571 C 1653,1644 1641,1655 1563,1646 C 1531,1642 1493,1631 1477,1621 L 1447,1602 L 1491,1595 C 1548,1586 1570,1573 1570,1552 C 1570,1530 1534,1470 1520,1470 C 1515,1470 1497,1484 1480,1500 C 1446,1533 1449,1532 1398,1535 C 1375,1536 1347,1548 1325,1564 C 1297,1585 1282,1590 1262,1585 C 1237,1579 1236,1579 1255,1593 C 1274,1607 1273,1609 1231,1664 L 1189,1721 L 1239,1696 C 1290,1670 1334,1663 1344,1679 C 1348,1684 1334,1697 1313,1707 C 1293,1717 1269,1740 1260,1757 C 1250,1775 1237,1796 1231,1804 C 1216,1821 1162,1830 1134,1819 C 1117,1813 1107,1817 1089,1836 C 1056,1871 977,1914 901,1939 C 818,1966 696,1967 625,1941 z M 890,1928 C 943,1912 1055,1852 1079,1826 L 1100,1803 L 1063,1747 C 1039,1710 1019,1690 1006,1690 C 995,1690 976,1680 963,1668 C 941,1648 936,1647 893,1658 C 850,1670 845,1669 822,1648 C 809,1635 773,1590 742,1548 C 712,1505 684,1470 681,1469 C 678,1469 657,1467 635,1465 C 613,1463 583,1457 568,1451 C 544,1442 542,1438 549,1412 C 554,1397 576,1351 599,1311 L 640,1239 L 615,1179 C 601,1146 592,1115 595,1111 C 598,1106 627,1099 660,1095 L 720,1088 L 766,1019 C 809,954 824,940 832,958 C 834,962 862,978 895,994 C 928,1011 973,1036 995,1051 C 1045,1084 1096,1082 1085,1046 C 1071,1001 1075,986 1109,963 C 1152,934 1170,934 1171,963 L 1171,985 L 1182,962 C 1198,929 1224,938 1228,979 C 1231,1003 1225,1019 1209,1036 C 1197,1049 1190,1060 1195,1060 C 1205,1060 1240,1020 1240,1008 C 1240,1004 1246,1000 1254,1000 C 1269,1000 1280,1021 1280,1050 C 1280,1064 1291,1069 1333,1074 C 1367,1079 1390,1087 1397,1098 C 1418,1132 1421,1175 1405,1213 C 1397,1233 1390,1264 1391,1282 L 1392,1315 L 1411,1274 C 1455,1177 1485,834 1461,684 C 1426,458 1311,281 1132,173 C 1026,110 954,89 823,83 C 644,74 512,116 372,222 C 242,322 142,507 88,745 C 80,784 75,866 76,980 C 77,1151 78,1158 113,1278 C 179,1498 269,1658 403,1787 C 493,1875 605,1932 705,1942 C 753,1947 852,1939 890,1928 z M 1205,1804 C 1214,1800 1230,1780 1240,1759 C 1251,1738 1270,1714 1282,1706 C 1320,1679 1280,1688 1226,1718 C 1198,1734 1169,1745 1162,1742 C 1154,1740 1131,1711 1109,1677 C 1065,1609 1057,1556 1089,1545 C 1108,1539 1252,1564 1272,1576 C 1281,1582 1310,1562 1310,1550 C 1310,1546 1280,1540 1244,1537 C 1201,1533 1162,1522 1133,1505 C 1081,1476 1051,1474 1010,1495 C 969,1516 971,1538 1030,1656 C 1095,1789 1141,1828 1205,1804 z M 1200,1683 C 1243,1618 1243,1621 1213,1629 C 1169,1642 1130,1662 1130,1672 C 1130,1690 1151,1720 1163,1720 C 1170,1720 1186,1703 1200,1683 z M 1010,1666 C 1010,1664 999,1638 985,1607 C 962,1558 956,1552 922,1546 C 902,1543 872,1540 855,1540 C 831,1540 808,1524 745,1462 C 701,1419 651,1374 634,1362 L 603,1341 L 585,1381 C 563,1430 569,1438 638,1444 C 695,1449 701,1453 747,1520 C 764,1545 795,1585 817,1609 C 851,1648 858,1652 877,1641 C 909,1624 945,1628 971,1650 C 993,1668 1010,1675 1010,1666 z M 1136,1641 C 1141,1636 1165,1625 1189,1617 L 1233,1603 L 1199,1586 C 1181,1577 1150,1567 1130,1564 C 1085,1557 1076,1571 1096,1618 C 1109,1651 1119,1657 1136,1641 z M 1627,1585 C 1629,1550 1622,1515 1602,1466 C 1571,1388 1546,1363 1528,1395 C 1516,1416 1471,1460 1423,1497 C 1396,1518 1396,1519 1418,1520 C 1430,1520 1448,1511 1458,1499 C 1467,1488 1487,1472 1501,1465 C 1525,1452 1529,1453 1550,1475 C 1566,1492 1574,1513 1574,1541 C 1575,1585 1567,1594 1516,1605 C 1501,1608 1490,1614 1494,1617 C 1503,1626 1571,1638 1600,1637 C 1623,1635 1625,1631 1627,1585 z M 1006,1476 C 1025,1467 1047,1460 1055,1460 C 1081,1460 1050,1423 1008,1404 C 987,1395 970,1384 970,1380 C 970,1376 990,1369 1015,1365 C 1055,1360 1060,1356 1055,1339 C 1045,1307 1067,1267 1116,1225 C 1155,1193 1160,1185 1148,1174 C 1138,1164 1123,1162 1090,1168 L 1045,1176 L 1048,1228 C 1051,1285 1036,1299 1026,1249 C 1011,1173 1020,1159 1091,1146 C 1111,1143 1137,1129 1149,1116 L 1171,1092 L 1142,1082 C 1125,1076 1108,1075 1104,1080 C 1083,1098 1033,1098 1005,1080 L 976,1061 L 936,1093 C 880,1136 873,1147 854,1207 C 840,1255 825,1278 815,1268 C 813,1266 820,1237 832,1202 C 851,1143 878,1107 935,1066 C 946,1058 953,1050 950,1047 C 943,1041 822,980 816,980 C 813,980 792,1009 769,1045 C 733,1101 723,1110 696,1111 C 679,1112 653,1115 638,1119 L 612,1125 L 636,1183 L 661,1241 L 639,1276 C 626,1298 621,1317 625,1328 C 632,1343 634,1342 639,1322 C 647,1291 663,1293 665,1325 C 665,1339 679,1363 694,1378 C 710,1393 720,1400 716,1393 C 709,1379 719,1350 731,1350 C 736,1350 740,1365 740,1383 C 740,1406 751,1427 780,1460 C 814,1499 819,1502 820,1483 C 820,1470 826,1460 833,1460 C 842,1460 845,1469 842,1489 L 838,1519 L 896,1522 C 942,1524 957,1521 963,1509 C 968,1500 987,1485 1006,1476 z M 1360,1496 C 1367,1458 1389,1449 1383,1487 C 1379,1514 1379,1514 1394,1496 C 1403,1485 1410,1465 1410,1451 C 1410,1437 1413,1415 1416,1403 C 1421,1386 1416,1381 1390,1375 L 1357,1368 L 1364,1309 C 1367,1277 1377,1234 1385,1213 C 1400,1178 1397,1116 1380,1105 C 1376,1102 1351,1103 1326,1106 C 1285,1112 1280,1115 1280,1139 C 1281,1161 1282,1162 1290,1148 C 1302,1129 1332,1134 1356,1161 C 1370,1176 1370,1180 1358,1185 C 1342,1192 1310,1188 1293,1177 C 1285,1172 1280,1174 1280,1184 C 1280,1204 1276,1204 1240,1185 C 1223,1176 1210,1162 1210,1153 C 1210,1130 1239,1100 1261,1100 C 1271,1100 1282,1095 1285,1089 C 1289,1083 1285,1080 1274,1082 C 1258,1084 1256,1079 1257,1050 C 1259,1031 1257,1022 1253,1030 C 1250,1038 1236,1056 1221,1070 C 1205,1085 1194,1109 1192,1130 C 1187,1177 1167,1213 1127,1247 C 1085,1282 1069,1310 1077,1338 C 1081,1354 1090,1360 1109,1360 C 1143,1361 1207,1390 1248,1424 C 1302,1471 1284,1473 1220,1428 C 1167,1391 1152,1385 1092,1382 L 1025,1377 L 1058,1411 C 1075,1429 1090,1447 1090,1451 C 1090,1472 1182,1511 1251,1519 C 1349,1530 1354,1529 1360,1496 z M 1485,1421 C 1496,1407 1515,1380 1528,1362 L 1551,1327 L 1516,1333 C 1465,1341 1431,1367 1437,1391 C 1442,1410 1444,1410 1470,1385 C 1484,1371 1500,1363 1503,1367 C 1514,1377 1460,1429 1444,1423 C 1430,1418 1424,1441 1436,1453 C 1445,1462 1461,1451 1485,1421 z M 1397,1353 C 1393,1350 1387,1350 1383,1353 C 1380,1357 1383,1360 1390,1360 C 1397,1360 1400,1357 1397,1353 z M 1260,1145 C 1260,1119 1246,1112 1235,1130 C 1226,1144 1236,1170 1250,1170 C 1255,1170 1260,1159 1260,1145 z M 1340,1166 C 1340,1157 1310,1152 1305,1160 C 1301,1166 1308,1170 1319,1170 C 1331,1170 1340,1168 1340,1166 z M 1170,1145 C 1170,1137 1166,1130 1161,1130 C 1148,1130 1139,1146 1147,1154 C 1158,1165 1170,1160 1170,1145 z "
           id="path10" />
        <g
           id="g12">
          <path
             d="M 425,781 C 347,745 300,670 300,583 C 300,523 316,492 359,463 C 398,437 462,433 536,451 C 587,464 594,475 605,563 L 612,620 L 541,620 C 477,620 470,618 470,600 C 470,583 477,580 515,580 L 561,580 L 554,543 C 545,492 539,487 478,483 C 383,476 336,529 354,623 C 375,735 485,791 584,740 C 627,719 640,721 640,751 C 640,797 501,816 425,781 z "
             id="path14" />
        </g>
        <g
           id="g16">
          <path
             d="M 794,786 C 748,766 693,696 680,638 C 653,526 694,451 789,442 C 858,436 929,456 943,487 C 958,520 949,523 899,500 C 790,451 708,503 724,612 C 742,732 845,792 943,740 C 990,715 990,715 990,749 C 990,773 984,780 959,789 C 916,804 832,802 794,786 z "
             id="path18" />
        </g>
        <g
           id="g20">
          <path
             d="M 1130,784 C 1081,763 1060,742 1034,685 C 1006,626 1002,544 1026,499 C 1054,443 1157,423 1240,456 C 1271,469 1280,477 1280,496 C 1280,524 1277,525 1246,505 C 1233,496 1200,487 1172,483 C 1125,478 1119,480 1091,508 C 1065,534 1060,546 1060,588 C 1060,718 1179,800 1279,739 C 1316,717 1315,716 1324,748 C 1330,767 1326,773 1296,785 C 1251,804 1175,804 1130,784 z "
             id="path22" />
        </g>
        <g
           id="g24">
          <path
             d="M 1312,1403 C 1327,1388 1343,1379 1346,1383 C 1356,1393 1320,1430 1301,1430 C 1290,1430 1293,1423 1312,1403 z "
             id="path26" />
        </g>
        <g
           id="g28">
          <path
             d="M 1247,1365 C 1225,1344 1222,1335 1230,1320 C 1236,1309 1248,1300 1256,1300 C 1277,1300 1333,1357 1328,1373 C 1320,1396 1276,1392 1247,1365 z M 1310,1370 C 1310,1365 1303,1360 1295,1360 C 1287,1360 1276,1351 1270,1340 C 1264,1329 1254,1323 1248,1326 C 1241,1331 1246,1342 1264,1357 C 1293,1381 1310,1386 1310,1370 z "
             id="path30" />
        </g>
      </g>
    </g>
  </g>
</svg>
